<?xml version="1.0" encoding="UTF-8"?>
<!DOCTYPE svg PUBLIC "-//W3C//DTD SVG 1.1//EN" "http://www.w3.org/Graphics/SVG/1.1/DTD/svg11.dtd">
<!-- Creator: CorelDRAW -->
<svg xmlns="http://www.w3.org/2000/svg" xml:space="preserve" width="35mm" height="50mm" style="shape-rendering:geometricPrecision; text-rendering:geometricPrecision; image-rendering:optimizeQuality; fill-rule:evenodd; clip-rule:evenodd"
viewBox="0 0 35 50"
 xmlns:xlink="http://www.w3.org/1999/xlink">
 <defs>
  <style type="text/css">
   <![CDATA[
    .fil0 {fill:#0093DD}
   ]]>
  </style>
 </defs>
 <g id="Layer_x0020_1">
  <metadata id="CorelCorpID_0Corel-Layer"/>
  <path class="fil0" d="M4.8423 4.3842c-0.0162,0.1528 -0.1956,0.5178 -0.0678,0.4463 0.0729,-0.0408 0.067,0.1916 0.0447,0.2822 -0.1564,0.6356 -0.59,1.1741 -0.59,1.1741 0,0 0.936,2.3795 1.1816,3.5768 0.2456,1.1973 0.2755,1.765 0.5825,1.765 0.307,0 0.185,-0.0151 0.8297,-0.2914 0.6447,-0.2763 0.6754,-0.7056 1.5657,-0.8284 0.8903,-0.1228 2.456,-0.0926 2.456,-0.0926 0,0 0.3684,-0.3991 0.8289,-0.614 0.4605,-0.2149 0.614,-0.4912 0.921,-0.4605 0.307,0.0307 0.9413,-0.0614 0.9359,-0.0309l0.0459 -0.2608c0,0 -0.2755,0.3995 -0.9201,-0.1224 -0.6446,-0.5219 -0.922,-0.7667 -0.8757,-1.1968 0.0463,-0.4301 0.323,-1.1376 0.323,-1.1376 0,0 0.2308,-0.2905 -0.1533,-0.5055 -0.3841,-0.215 -0.8144,-0.7831 -0.3846,-0.9366 0.4298,-0.1535 1.1824,-0.1381 1.1824,-0.1381 0,0 -0.0921,0.0307 0.1842,-0.2456 0.2763,-0.2763 0.1844,-0.353 0.6449,-0.4144 0.4605,-0.0614 0.5905,0.105 0.7672,-0.1692 0.0992,-0.154 -0.141,-0.3072 -0.2999,-0.4015 -0.5674,-0.3367 -1.7216,-0.8097 -2.295,-1.0724 -0.7342,-0.3363 -0.4451,-1.1038 -0.0153,-1.288 0.4298,-0.1842 1.3824,0.3673 1.3824,0.3673 0,0 1.3346,0.4608 1.703,0.4608 0.3684,0 0.124,-0.7826 1.444,-1.5194 1.32,-0.7368 2.6005,-0.1009 2.898,0.1364 0.5062,0.4037 1.5448,1.9817 2.4895,1.6286 0.553,-0.2066 1.5964,-0.7368 1.5964,-0.7368 0,0 0.6138,-0.3381 0.7982,-0.0614 0.1844,0.2767 0.3991,0.7982 -0.0921,1.0438 -0.4912,0.2456 -1.7192,0.921 -1.7192,0.921l-0.0921 0.9824 -0.3201 0.2837 -0.3401 0.6833c0.2412,0.6269 0.243,1.0192 0.2537,1.4493 0.0095,0.3796 0.0487,0.7934 -0.0542,1.3599l-0.967 0.1695 0.476 1.1812c0,0 0.3912,0.0991 0.7057,0.034 0.3145,-0.065 0.6604,-0.4788 0.8443,-0.5246 0.3682,-0.0918 0.5992,0.7665 0.5992,0.7665 0,0 1.0288,-0.7977 1.1209,-1.1354 0.0921,-0.3377 0.506,-0.522 0.3832,-0.7983 -0.1228,-0.2763 -0.3235,-0.7517 0.2905,-0.9665 1.6049,-0.5617 -0.025,-1.1365 0.7983,-1.7951 0.4604,-0.3684 0.3541,-0.0014 0.3541,-0.247 0,-0.2456 -0.0931,-0.5521 0.306,-0.9512 0.3991,-0.3991 0.016,-0.4147 0.4765,-0.5067 0.4605,-0.092 0.1999,0.0764 0.599,0.2606 0.3991,0.1842 0.9509,0.3984 0.9509,0.7668 0,0.7237 -0.4956,0.6414 -0.8784,1.2233 -0.1497,0.2276 -0.0719,0.5747 -0.2874,0.7729 -0.2396,0.2204 -0.4142,0.4189 -0.5192,0.5868 -0.2311,0.3699 -0.1871,0.5949 -0.1871,0.5949l-2.6717 2.6721c0,0 -0.5831,0.5056 -0.0612,0.659 0.2608,0.0767 1.6261,0.5383 2.5742,1.302 0.9481,0.7637 1.4943,1.7989 1.4943,1.7989 0,0 0.9666,0.3856 0.9362,1.6264 -0.0304,1.2408 -2.4714,1.5813 -3.1161,1.9804 -0.6447,0.3991 -1.151,0.8446 -1.2431,1.6428 -0.0921,0.7982 -0.2763,9.3942 -0.2763,9.3942l0.192 3.107 0.0842 4.3832c0,0 1.9803,0.3062 3.2388,0.8905 1.2585,0.5843 2.9779,3.8687 2.9779,3.8687l2.7171 3.5918c0.1291,0.1706 1.0598,1.2279 0.2002,1.7191 -0.8596,0.4912 -0.9368,0.4599 -0.9981,0.9818 -0.1841,1.5652 -2.3738,2.282 -3.2205,2.1223 -0.3847,-0.0726 -0.426,-0.4661 0.0305,-0.8053 0.2591,-0.1926 0.4993,-0.1877 0.7053,-0.249 0.3211,-0.0957 0.5596,-0.2217 0.6575,-0.4996 0.1838,-0.5216 0.046,-3.1158 0.046,-3.1158 -0.4232,-0.3371 -1.7863,-1.4685 -2.8061,-1.4801 -0.4304,-0.0048 -1.2523,0.4916 -1.1849,0.8435 0.0372,0.1939 0.2959,-0.1497 0.5067,0.1453 0.8192,1.1464 -2.5814,1.8345 -2.7315,0.2615 -0.0951,-0.9971 0.3972,-1.7803 1.0112,-2.2715 0.614,-0.4912 0.9376,-0.6608 0.9376,-0.6608l0.1996 -0.0769 -4.0678 -3.1159c0,0 -0.8146,0.1529 -1.0601,-0.2768 -0.1544,-0.2703 -2.6118,-2.2552 -4.1518,-3.9506 -0.9074,-0.9991 -1.5575,-2.2806 -1.5575,-2.2806 0,0 -0.7524,1.0429 -1.612,1.6569 -0.2149,0.1535 -0.535,0.0759 -0.6874,0.332 -0.4575,0.7685 -0.326,2.1244 -0.326,2.1244 0,0 -0.0779,1.1869 -0.2643,2.0533 -0.1046,0.4859 -0.3065,0.8608 -0.3945,0.8937 -0.2455,0.0918 -0.8603,-1.1659 -0.8603,-1.1659l-0.046 2.5477c0,0 -1.3815,2.2104 -1.6885,2.9165 -0.307,0.7061 -1.5292,5.5211 -2.2353,5.5211 -0.7061,0 -1.2952,-0.2714 -2.0013,-0.2714 -0.7061,0 -0.6729,0.2647 -1.6553,0.2341 -0.5371,-0.0167 -1.4956,-0.0257 -2.2174,-0.1393 -0.598,-0.0942 -1.0145,-0.2878 -1.07,-0.3711 -0.1228,-0.1841 0.3684,-0.7675 0.8903,-0.7675 0.5219,0 1.3815,0.1228 1.9034,-0.1535 0.5219,-0.2763 3.0393,-1.9034 3.0393,-1.9034 0,0 0.2357,-0.1663 0.1743,-0.9031 -0.0614,-0.7368 -0.1603,-2.8016 -0.9585,-3.2007 -0.7982,-0.3991 -1.148,-0.3148 -1.148,0.0228 0,0.3344 -0.1327,0.7736 -0.4398,0.9682 -0.3482,0.2205 -0.8904,0.1577 -1.1626,-0.1713 -0.3058,-0.3697 -0.3894,-1.0701 -0.2863,-1.3794 0.1535,-0.4605 0.6515,-1.4995 1.6953,-1.53 0.3586,-0.0105 1.0521,0.0602 1.48,0.3213 0.8173,0.4986 1.3278,1.3614 1.3278,1.3614l0.423 -3.5633c0,0 0.2456,-0.3684 0.3991,-0.9824 0.1535,-0.614 0.3377,-1.1666 0.3377,-1.9034 0,-0.7368 0.3555,-3.7852 0.3555,-3.7852l-8.0722 10.769c0,0 -0.2346,-0.2912 -0.1425,-0.6596 0.0921,-0.3684 0.8289,-1.2587 0.8289,-1.2587l7.7671 -11.1739 -0.1535 -1.014 -0.1197 -0.8388 0.703 0.102 -0.2438 -3.0472 -0.234 -0.0783 -0.0129 0.5982 -0.3965 0.2655 -0.0349 -0.3733 -0.1524 -0.5884 -1.3636 -8.9872 -0.9513 0.0385 -0.4417 -0.3364 -0.517 0.2892c0,0 -1.8275,0.066 -2.288,-1.6839 -0.4605,-1.7499 -1.0696,-6.7578 -1.0696,-6.7578 0,0 -0.5219,-0.6447 -0.6447,-1.2587 -0.1228,-0.614 -0.3508,-1.5749 -0.4605,-2.0262 -0.2154,-0.8858 -0.0906,-0.7642 0.1535,-0.7675 -0.0647,-0.4892 0.0871,-0.6407 0.4912,-0.3991 0,0 0.2149,-0.5217 0.4298,-0.5217 0.2149,0 0.5219,0.3068 0.5219,0.3068 0.0621,-0.0835 0.1685,-0.3098 0.3018,-0.3042 0.2647,0.0007 0.6411,0.9533 0.7418,1.1494l0.0549 0.5249 0.283 0.3798c0,0 0.1597,0.0271 0.5371,-0.3223 0.2947,-0.273 0.7347,-0.1782 0.7611,0.2484 0.0073,0.1193 -0.0281,0.3346 -0.0852,0.4866 -0.1838,0.4894 -0.3269,-0.1779 -0.4307,0.8005zm7.8494 -2.184l-0.0153 0.5202 0.1836 0.0612 0.2754 0.153 0.1683 -0.0153 -0.0918 -0.6426 -0.2601 -0.0612 -0.1683 -0.1377 -0.0918 0.1224zm1.1781 0.5508c0,0 0.3519,0.2448 0.7344,0.2448 0.3825,0 0.9793,-0.2601 1.0557,-0.5202 0.0764,-0.2601 0.2907,-0.6885 0.7038,-1.0557 0.4131,-0.3672 0.7804,-0.5201 1.4229,-0.4437 0.6425,0.0764 0.9486,0.0612 1.3617,0.5508 0.4131,0.4896 0.9639,1.224 1.4076,1.3617 0.4437,0.1377 0.6732,0.2601 0.6732,0.2601l-0.1989 0.306 0.0306 0.2907c0,0 0.2142,-0.0918 0.3519,-0.0918 0.1377,0 0.2907,0.1224 0.2448,0.2601 -0.0459,0.1377 -0.1377,0.4131 -0.3672,0.4131 -0.2295,0 -0.6579,-0.0918 -0.9486,-0.0918 -0.2907,0 -0.918,0.1071 -1.1322,0.2601 -0.2142,0.153 -0.6885,0.5202 -0.9639,0.7344 -0.2754,0.2142 -0.612,0.8568 -0.765,0.8415 -0.153,-0.0153 -0.5202,-0.4896 -0.6579,-0.8568 -0.1377,-0.3672 0.0765,-0.4743 0.2601,-0.5508 0.1836,-0.0765 -0.0918,-0.459 0.3213,-0.5202 0.4131,-0.0612 1.5759,-0.0765 1.5759,-0.0765 0,0 0.0918,-0.1377 0.4284,-0.1836 0.3366,-0.0459 0.5508,0.0918 0.5355,-0.0765 -0.0153,-0.1683 0.1376,-0.3519 -0.5355,-0.2754 -0.6731,0.0765 -1.4994,0.1071 -2.1267,0.0918 -0.6273,-0.0153 -1.2087,0.1071 -1.9431,-0.0918 -0.7344,-0.1989 -1.4229,-0.1989 -1.53,-0.4284 -0.1071,-0.2295 0.0612,-0.3519 0.0612,-0.3519zm5.9058 2.0808l0.0153 0.3519 0.6885 0.0153 0.2448 0.2142 0.2601 0.0153 0.2295 -0.3825 -0.0918 -0.3519 -1.3464 0.1377zm-1.4382 0.918l0.918 -0.7191c0,0 0.306,0.0153 0.2295,0.1377 -0.0765,0.1224 -0.2448,0.1683 -0.2142,0.3672 0.0306,0.1989 0.1377,0.0459 0.153,0.2754 0.0153,0.2295 -0.2754,0.1836 -0.153,0.4284 0.1224,0.2448 -0.1836,0.4743 0.459,0.5202 0.6426,0.0459 1.0251,-0.2754 1.1781,-0.3366 0.153,-0.0612 0.2142,0.8109 0.2142,0.8109l-0.1989 0.1224c0,0 -0.2907,-0.1836 -0.3978,-0.0459 -0.1071,0.1377 -0.153,0.5661 -0.153,0.5661l-0.5508 -0.0459 -0.0612 0.3825 -0.4896 0.0612 0.3978 0.459 0.6579 0.1224 0.6579 1.3617 0.0153 0.2295 -0.3978 -0.0459 -0.0612 -0.2601 -0.4437 -0.1683 -0.2295 -0.3213 -0.3978 -0.1377 -0.0765 -0.1683 -0.7344 0.0153 -0.2907 -0.1377 -0.0765 0.3672c0,0 0.3059,0.0001 0.2448,0.3672 -0.152,0.913 -1.4278,1.032 -2.1175,1.0514 -0.4718,0.0133 -0.9799,-0.079 -1.2944,-0.2864 -0.719,-0.4742 -1.2393,-0.9945 -1.2393,-0.9945l0.0306 -0.2295 0.3366 -0.1071 0.3366 -0.0612 0.306 -0.7956 0.3519 -0.3672 0.2907 -0.0918 -0.0153 -0.6273 0.459 -0.0306 0.0765 0.6426 0.4437 0.1989 -0.0306 -1.1169 0.2295 -0.0612 0.0612 -0.2448 0.4131 0.0459 0.0306 -0.2601 0.3366 -0.0153c0,0 -0.0764,0.2601 0.2448,0.5355 0.3212,0.2754 0.3519,0.3519 0.6732,0.3825 0.3213,0.0306 0.306,0.1071 0.306,0.1071l0.0765 0.3672c0,0 0.1683,0.3978 0.306,0.153 0.1377,-0.2448 0.1836,-1.071 0.1836,-1.071 0,0 -0.0765,0.3672 -0.5508,0.1071 -0.4743,-0.2601 -0.9945,-0.3672 -0.8262,-0.7344 0.1683,-0.3672 0.3825,-0.7038 0.3825,-0.7038zm-1.3923 2.448l0.0459 0.5508c0,0 0.0612,-0.0306 0.1989,0.1377 0.1377,0.1683 0.3978,0.3366 0.3978,0.3366l0.2601 -0.1836 -0.3519 -0.4896 -0.1224 -0.3978 -0.4284 0.0459zm-4.0851 -1.8513l0.9027 0.0765 0.459 -0.0612 -0.0306 0.3366 -0.6579 0.4437c0,0 -0.306,0.1224 -0.1224,0.2754 0.1836,0.153 0.3672,0.1989 0.4743,0.0765 0.1071,-0.1224 0.9639,-0.9333 0.9639,-0.9333l0.2601 -0.1377 0.1224 -0.3213 0.2907 0 0.0153 0.3213 0.0153 0.459 -0.3978 0.1377 -0.0306 0.4743 -0.4743 0.3213 -0.1989 0.3366 -0.0918 0.612c0,0 -0.612,-0.1071 -0.6732,-0.1836 -0.0612,-0.0765 -0.1224,-0.2754 -0.2448,-0.1683 -0.1224,0.1071 -0.0153,0.3672 -0.3978,0.1683 -0.3825,-0.1989 -0.7344,-0.5968 -0.6732,-0.918 0.0612,-0.3212 0.4896,-1.3158 0.4896,-1.3158zm0.8874 4.8501c0,0 0.6579,1.2546 1.2546,1.4229 0.5967,0.1683 0.9333,0.3366 1.6524,0.2907 0.7191,-0.0459 1.4382,-0.1377 1.9125,-0.3825 0.4743,-0.2448 1.5606,-1.5453 1.5606,-1.5453l0.0153 -0.2754 -0.3519 0.0153 -0.1683 -0.2142 -0.2601 -0.0459 -0.4437 0.3978 -0.3213 0.0459 -0.1224 0.306 -0.1989 0.2295 -0.4131 -0.0459 -0.153 0.2601 -1.8207 -0.0612 -0.3366 -0.1836 -0.6732 -0.0612 -0.0765 -0.1989 -1.0557 0.0459zm-2.3715 -0.6885l0.7803 -0.3519 0.0459 -0.1071 0.5202 -0.0459 0.3519 1.0251c0,0 0.5202,1.5453 1.4841,1.9125 0.9639,0.3672 1.1475,0.459 2.0502,0.459 0.9027,0 1.4994,-0.1071 2.1879,-0.4743 0.6885,-0.3672 1.7595,-1.7442 1.7595,-1.7442 0,0 0.0306,-0.0765 0.1683,-0.0153 0.1377,0.0612 0.306,0.2754 0.5967,0.2448 0.2907,-0.0306 0.6579,0.0306 0.6579,-0.1683 0,-0.1989 -0.0306,-0.459 -0.0306,-0.459l-0.2448 -0.0765 0.0306 -0.2754 0.612 0 0.0612 0.3366 0.1989 0.3213 -0.3519 0.6579 -1.097 1.4417 -0.4218 0.0393 0.0807 0.409 -0.7039 0.9252 -0.3825 0.0918 -0.0765 0.7038 -1.1322 1.4688 -0.4131 0.0612 -0.3519 -0.1836 -0.8262 -0.0306 -1.8972 -1.2546c0,0 -0.3519,-0.5508 -0.8568,-0.9639 -0.5049,-0.4131 -2.0655,-2.2185 -2.2644,-2.5551 -0.1989,-0.3366 -0.6273,-0.7803 -0.6273,-0.7803l0 -0.3366 0.0918 -0.2754zm-4.3452 1.4076l0.0459 -0.3519 0.4284 0.0612 0.153 -0.2448 0.3672 0 0.4131 0.3672 0.1377 -0.153 0.0765 -0.5814 1.8972 -0.0612c0,0 0.2295,0.4131 0.8874,1.2393 0.6579,0.8262 0.7956,1.2393 1.8054,2.1114 1.0098,0.8721 0.9639,1.1322 2.0349,1.8054 1.071,0.6732 1.4688,0.8262 1.4688,0.8262l-0.0459 0.459c0,0 -0.3519,-0.0918 -0.459,0 -0.1071,0.0918 -0.1071,0.3519 0.0306,0.3978 0.1377,0.0459 0.2142,0.3519 0.2142,0.3519l-0.1683 0.2754 -0.1224 0.0612 -0.0612 0.3519c0,0 -0.3061,-0.0306 -0.612,-0.1377 -0.1434,-0.0501 -0.8596,-0.3262 -1.5697,-0.7695 -0.8047,-0.5024 -1.6157,-1.1857 -1.8269,-1.3725 -0.3977,-0.3518 -0.765,-0.7803 -0.765,-0.7803 0,0 -0.3213,-0.0612 -0.2295,0.1683 0.0918,0.2295 0.7038,0.9945 1.3923,1.4535 0.6885,0.459 1.4994,1.2699 2.0196,1.4688 0.5202,0.1989 1.3158,0.4284 1.4535,0.4743 0.1377,0.0459 0.3825,0.2448 0.1836,0.3672 -0.1989,0.1224 -0.4743,0.5508 -0.7191,0.6885 -0.2448,0.1377 -0.4743,0.2295 -0.9486,0.0306 -0.4743,-0.1989 -2.7081,-1.4229 -3.4884,-2.0961 -0.7803,-0.6732 -2.1573,-2.142 -2.448,-2.9988 -0.2907,-0.8568 -0.4743,-1.6371 -0.4743,-1.6371 0,0 -0.1989,-0.5049 -0.3978,-0.8721 -0.1989,-0.3672 -0.6732,-0.9027 -0.6732,-0.9027zm3.3507 2.6316c0,0 -0.1836,-0.0306 -0.1224,0.2142 0.0612,0.2448 0.2907,0.306 0.4437,0.5049 0.153,0.1989 0.4437,0.4437 0.4131,0.1683 -0.0306,-0.2754 -0.0459,-0.612 -0.2142,-0.7038 -0.1683,-0.0918 -0.5202,-0.1836 -0.5202,-0.1836zm-8.2008 -9.3024c0,-0.0765 -0.0765,-0.6273 -0.0765,-0.6273l0.3825 -0.1071 0.1377 -0.3672 -0.1836 -0.306 0.3825 -0.0765 0.0306 -0.1989 0.3672 0.0612 0.0918 -0.1683 0.3366 0.0918 0.1071 0.3366c0,0 0.2448,-0.0306 0.1224,0.2448 -0.1224,0.2754 -0.1836,0.4284 -0.1836,0.4284l-0.5661 -0.0612 -0.4437 0.3978c0,0 -0.2295,0.3978 -0.0459,0.3672 0.1836,-0.0306 0.4437,-0.1224 0.4437,-0.1224l0.2142 0.4131c0,0 0,0.2448 0.153,0.1377 0.153,-0.1071 0.3978,-0.153 0.3978,-0.153 0,0 0.2754,-0.0612 0.153,0.1377 -0.1224,0.1989 -0.3825,0.1836 -0.2754,0.5814 0.1071,0.3978 0.3213,0.3519 0.7497,1.9125 0.4284,1.5606 0.5508,2.2338 0.7344,3.1824 0.1836,0.9486 0.1989,1.1169 0.5661,0.9792 0.3672,-0.1377 0.4437,-0.3672 0.6885,-0.2142 0.2448,0.153 0.3825,0.3825 0.612,0.7191 0.2295,0.3366 0.5202,0.7344 0.4896,0.9639 -0.0306,0.2295 -0.0765,0.2907 -0.4437,0.2601 -0.3672,-0.0306 -0.459,-0.1224 -0.7344,-0.1836 -0.2754,-0.0612 -0.306,-0.1377 -0.5661,0.0306 -0.2601,0.1683 -0.2754,0.306 -0.6885,0.1071 -0.4131,-0.1989 -0.7191,0.0918 -1.0404,-0.6579 -0.3213,-0.7497 -0.7038,-1.6524 -0.7803,-2.6775 -0.0765,-1.0251 -0.1836,-1.7442 -0.1836,-1.7442l0.5967 -0.0612 -0.1071 -0.8568 -0.3366 -0.0459 -0.0459 0.4437c0,0 -0.2295,0.2142 -0.2907,-0.153 -0.0612,-0.3672 -0.0459,-1.1475 -0.0153,-1.5912 0.0306,-0.4437 0.2601,-0.6885 -0.0153,-0.7956 -0.2754,-0.1071 -0.5202,-0.0765 -0.5967,-0.2601 -0.0765,-0.1836 -0.1377,-0.3672 -0.1377,-0.3672zm21.2259 6.3971l0.6946 0.2141c0,0 0.552,0.0356 0.8014,0.1783 0.2494,0.1427 0.8371,0.5708 0.8371,0.5708 0,0 -0.5522,0.3746 -0.8193,0.767 -0.2671,0.3924 -1.1398,1.7123 -1.3357,1.8015 -0.1959,0.0892 -0.4987,0.1249 -0.4987,0.1249 0,0 0.2137,0.1783 -0.4631,0.5886 -0.6768,0.4103 -0.7124,0.6243 -0.7124,0.6243l-0.4809 -0.0892c0,0 -0.1246,0.2497 -0.6411,0.4816 -0.5165,0.2319 -0.7481,0.1963 -0.7481,0.1963l-0.3384 0.2318 -0.2849 -0.4281 1.407 -2.1047 1.0686 -1.2129 0.374 -0.2141 -0.0712 -0.4281 0.5877 -0.7313 0.6234 -0.5708zm2.5825 1.4627l-1.1755 1.1594 -0.0713 0.3389 1.8523 0.107 0.3918 0.0535c0,0 0.4453,-0.2497 0.4453,-0.4281 0,-0.1784 -0.4631,-0.8383 -0.6234,-1.0167 -0.1603,-0.1784 -0.1781,-0.3211 -0.374,-0.3211 -0.1959,0 -0.4452,0.1071 -0.4452,0.1071zm-1.7633 1.9977l2.3154 -0.0713c0,0 0.2314,0.3567 0.4452,0.214 0.2138,-0.1427 0.4809,-0.5173 0.659,-0.4816 0.1781,0.0357 0.5522,0.107 0.6056,0.3924 0.0534,0.2854 0.3383,0.8385 -0.0713,0.9811 -0.4096,0.1426 -1.5673,0.7669 -1.5673,0.7669 0,0 -0.2137,-0.0178 -0.7658,-0.3567 -0.5521,-0.3389 -1.3358,-0.6064 -1.4961,-0.8383 -0.1603,-0.2319 -0.3563,-0.3389 -0.3028,-0.4638 0.0535,-0.1249 0.1781,-0.1427 0.1781,-0.1427zm-0.1959 0.8027c0.2138,0.3032 0.3383,0.6243 0.8905,0.8205 0.5522,0.1962 1.0865,0.1962 1.0865,0.3032 0,0.107 0.1069,0.0714 -0.4987,0.5173 -0.6056,0.4459 -0.8192,0.6422 -0.9261,0.8562 -0.1069,0.214 0.0356,0.3388 -0.2672,0.2318 -0.3028,-0.107 -1.5138,-1.088 -1.7632,-1.4626 -0.2494,-0.3746 -0.2138,-0.6422 -0.0891,-0.7492 0.1247,-0.107 0.8549,-0.5885 0.9974,-0.6599 0.1425,-0.0714 0.5699,0.1427 0.5699,0.1427zm-2.7784 1.3021c0.1069,-0.107 0.2672,-0.2675 0.4275,-0.2854 0.1603,-0.0179 0.5344,0.2854 0.6768,0.5708 0.1424,0.2854 0.089,0.4637 0.6233,0.7848 0.5343,0.3211 0.5166,0.4817 0.944,0.5886 0.0533,0.0133 0.1672,0.0685 0.2007,0.186 0.2351,0.8228 -0.0404,3.8452 -0.0404,3.8452 0,0 -0.1781,0.1427 -0.3028,-0.0357 -0.1247,-0.1784 -0.4808,-0.8383 -0.5699,-1.0702 -0.0891,-0.2319 -0.285,-0.4282 -0.3206,-0.2141 -0.0356,0.2141 0.0355,0.4282 0.1068,0.6422 0.0713,0.214 0.6412,1.0702 0.6412,1.0702l0.2494 -0.0178 0.089 0.9275c0,0 -0.2138,-0.0001 -0.1425,0.214 0.0713,0.2141 0.1425,0.6422 0.1603,0.8919 0.0178,0.2497 0.0356,1.6053 0.0356,1.6053l-0.0178 0.7135c0,0 -0.196,0.4282 -0.3206,0.2676 -0.1246,-0.1606 -0.1781,-0.4995 -0.1781,-0.4995 0,0 0.3918,-0.2854 0.1781,-0.4816 -0.2137,-0.1962 -0.5343,-0.4281 -0.5877,-0.2854 -0.0534,0.1427 0.1247,1.7659 0.1247,1.7659 0,0 0.3028,0.1069 0.3918,0.4994 0.089,0.3925 0.2493,2.4259 0.2493,2.4259l0.1247 0.3032 0.2137 2.6934 0 0.214c0,0 -0.4096,0.1963 -0.4452,-0.0356 -0.0356,-0.2319 -0.3919,-2.2298 -0.4275,-2.5151 -0.0356,-0.2853 -0.8548,-1.8906 -1.122,-2.5506 -0.2672,-0.66 -0.6413,-1.2664 -0.5878,-1.7302 0.0535,-0.4638 0.2851,-0.9097 0.3919,-1.4805 0.1068,-0.5708 0.0712,-1.3557 0.0356,-1.8016 -0.0356,-0.4459 -0.2315,-1.2307 -0.3918,-1.5161 -0.1603,-0.2854 -0.3029,-0.428 -0.4097,-0.3032 -0.1068,0.1248 -0.0178,0.767 -0.0178,0.767 0,0 -0.374,-0.0714 -0.4096,-0.1606 -0.0356,-0.0892 -0.4631,-0.5351 -0.4631,-0.5351 0,0 -0.0177,-0.9453 -0.089,-1.2664 -0.0713,-0.3211 -0.1781,-0.9989 -0.1781,-0.9989 0,0 -0.1247,0.1606 -0.1069,-0.1605 0.0178,-0.3211 -0.3028,-1.8729 -0.3028,-1.8729l0.3206 -0.0714 0.2137 -0.321 0.3206 0.2854 0.2316 0.3389c0,0 0.0178,0.3388 0.0534,0.5172 0.0356,0.1784 0.196,0.5709 0.3206,0.446 0.1246,-0.1249 0.2315,-0.1784 0.3918,-0.1784 0.1603,0 0.2136,-0.1428 0.4274,0.4102 0.2138,0.553 0.57,0.6243 0.57,0.6243l0.0712 -0.3032 -1.3358 -2.4437c0,0 -0.1603,-0.1426 -0.1781,-0.2675 -0.0178,-0.1249 0.1603,-0.1962 0.1603,-0.1962zm-3.4177 0.5529c0,0 0.3384,0.2497 0.6412,0.1427 0.3028,-0.107 0.6411,-0.2497 0.6411,-0.2497l0.0357 0.5886 0.1246 0.7492 0 0.5886 -1.6207 -0.107c0,0 -0.3561,-0.1249 -0.3027,-0.3211 0.0534,-0.1962 0.1781,-0.6243 0.1781,-0.6243l-0.1247 -0.2675 0.3206 -0.0357c0,0 0.2671,-0.0179 0.089,-0.1784 -0.1781,-0.1605 -0.2137,-0.3032 -0.2137,-0.3032l0.2315 0.0178zm-0.3562 2.0156c0,0 0.1425,0.2319 0.6946,0.2319 0.5521,0 0.9439,0.0713 0.9439,0.0713l0.0179 0.767 -0.57 0.3033 -0.7302 0.1427 -0.9083 -0.0357 -0.3384 -0.2497 -0.2671 0.0356 -0.0535 -0.3745c0,0 0.5878,-0.339 0.7481,-0.4995 0.1603,-0.1605 0.463,-0.3924 0.463,-0.3924zm-1.8166 1.5518l0.0178 0.2497 -0.0534 0.3033 0.0712 0.214 0.4097 -0.1605 0.7658 -0.0357 0.0178 -0.3032 -0.5521 -0.2676 -0.6768 0zm-2.1372 -0.5708l0 1.0524 0.8549 -0.0178c0,0 0.374,-0.3032 0.4096,-0.4816 0.0356,-0.1784 0.1603,-0.3389 -0.1781,-0.3924 -0.3384,-0.0535 -0.4452,-0.1962 -0.5699,-0.1962 -0.1247,0 -0.5165,0.0356 -0.5165,0.0356zm-2.3153 -1.3199c0,0 0.0177,0.7492 0.0712,1.0524 0.0535,0.3032 0.0712,0.7313 0.3206,1.2129 0.2494,0.4816 0.2672,0.5707 0.2672,1.0702 0,0.4995 -0.1068,0.9454 0.1781,0.6957 0.2849,-0.2497 0.8014,-0.4281 0.7836,-0.767 -0.0178,-0.3389 -0.3206,-0.4458 -0.2137,-0.6421 0.1069,-0.1963 0.3918,-0.2498 0.3918,-0.2498l0.0891 -1.3734c0,0 -0.0713,-0.3212 -0.285,-0.3568 -0.2137,-0.0356 -0.2671,0.3033 -0.2671,0.3033l-0.3206 0.0713c0,0 0.0534,-0.0713 -0.1425,-0.4994 -0.1959,-0.4281 -0.4809,-0.8027 -0.6946,-0.8027 -0.2137,0 -0.1781,0.2854 -0.1781,0.2854zm-0.7658 -0.9097c0,0 0.5699,2.3546 0.7658,3.3891 0.1959,1.0345 0.4988,2.0333 0.2672,2.1047 -0.2316,0.0714 -0.374,-0.2676 -0.4987,-0.5351 -0.1247,-0.2675 -0.3919,-0.767 -0.4097,-0.4816 -0.0178,0.2854 0,0.9632 0.1247,1.3021 0.1247,0.3389 0.1603,0.8206 -0.0534,0.8919 -0.2137,0.0713 -0.5343,0.1962 -0.5343,-0.1427 0,-0.3389 -0.3563,-3.1394 -0.4275,-3.6745 -0.0712,-0.5351 -0.4808,-3.3533 -0.4808,-3.3533l0.3918 -0.0357c0,0 -0.1247,0.6599 0.0356,1.1237 0.1603,0.4638 0.3562,1.1772 0.5343,1.2486 0.1781,0.0714 0.4275,0.2498 0.285,-0.214 -0.1425,-0.4638 -0.3028,-1.2485 -0.3384,-1.6053 -0.0356,-0.3568 0.089,-0.4816 0.1959,-0.3746 0.1069,0.107 0.1425,0.3567 0.1425,0.3567zm-1.692 1.8194l0.1247 1.2307 0.4274 0.0714 0.0713 -0.2676 -0.1781 -0.1605 -0.0713 -0.981 -0.374 0.107zm3.8826 3.0501l-0.9439 0.9632 -0.0178 0.2676 0.3027 0 0 0.2675c0,0 0.3027,-0.0178 0.374,-0.1248 0.0713,-0.107 0.7837,-1.2308 0.7837,-1.2308l0.1959 -0.1427 0.0178 -0.2497 -0.7124 0.2497zm2.2263 -0.5172l-1.5673 2.1404c0,0 -0.1781,0.107 0,0.2854 0.1781,0.1784 3.4194,1.4448 4.1853,1.5518 0.7659,0.107 0.659,0.0892 1.3714,0.1962 0.7124,0.107 0.944,0.3032 1.5317,0.4816 0.5877,0.1784 0.6945,0.6779 0.8014,0.0714 0.1069,-0.6065 0.2138,-0.4459 0.3028,-1.3021 0.089,-0.8562 0.4274,-1.213 -0.0891,-1.6946 -0.5165,-0.4816 -0.9082,-0.3032 -0.9973,-0.4994 -0.0891,-0.1962 0.1958,-0.1962 0.1068,-0.4459 -0.089,-0.2497 -1.2111,-1.1594 -1.2111,-1.1594l-4.4346 0.3746zm-2.4756 4.6554c0.4159,0.5112 1.1755,0.0356 1.5673,0.7313 0.3918,0.6957 1.3179,2.4972 1.3179,2.4972l-1.033 0.9989c0,0 -0.4986,0.3032 -0.2315,0.3924 0.2671,0.0892 0.6589,-0.214 0.6589,-0.214l0.4453 -0.4995c0,0 0.1959,-0.3745 0.3918,-0.214 0.1959,0.1605 0,0.9097 0,0.9097 0,0 -0.9083,0.9097 -1.6385,1.1951 -0.7302,0.2854 -1.2111,0.6599 -1.2111,0.6599 -0.488,0.3282 -1.5287,0.9656 -1.5673,1.3913 -0.0549,0.6051 0.0179,0.9633 0.1069,1.3735 0.089,0.4102 0.2672,1.3021 0.3028,1.5875 0.0356,0.2854 -0.1247,1.9799 -0.1247,1.9799l-1.1042 1.6945c0,0 -0.481,1.1595 -1.1399,0.8919 -0.6589,-0.2676 -1.0686,-0.5886 -1.0508,-1.1416 0.0178,-0.553 0.1605,-0.8383 0.2138,-1.4626 0.0241,-0.2827 0.0467,-0.9119 0.1552,-1.5052 0.1308,-0.7159 0.3547,-1.4127 0.4325,-1.8125 0.1424,-0.7312 0.0534,-1.3378 0.4096,-1.7481 0.3562,-0.4103 0.9796,-0.8026 0.9796,-0.8026 0,0 0.3454,-0.1825 0.6893,-0.3036 0.2352,-0.0827 0.4701,-0.0801 0.593,-0.1959 0.3027,-0.2853 0.5343,-0.4816 0.2137,-0.5708 -0.3206,-0.0892 -0.3383,0.1783 -0.7658,0.1962 -0.4275,0.0179 -0.4987,0.1961 -0.8371,0.0713 -0.3384,-0.1248 -0.4987,-0.1426 -0.5343,-0.7134 -0.0356,-0.5708 0.2672,-3.4069 0.2672,-3.4069l1.3891 -1.9086c0.3372,-0.4633 0.6884,-0.5825 1.1043,-0.0713zm-1.7633 10.6576c-0.9103,0.0933 -1.563,1.5284 -0.6332,1.9875 0.1798,0.0888 0.4459,0.1018 0.6963,0.318 0.2065,0.1783 0.0045,0.3906 -0.3212,0.3611 -1.8472,-0.1676 -1.8538,-2.1444 -0.768,-2.893 0.213,-0.1468 0.4406,-0.2942 0.75,-0.3087 0.6014,-0.0282 0.6802,0.4937 0.2761,0.5351zm2.0661 -3.646l-0.7982 0.5833c0,0 -0.4605,0.0921 -0.2149,0.4912 0.2456,0.3991 0.2456,1.1052 0.2456,1.1052l0.3991 0.921 0.4605 0.1228 0.2149 -2.456 0.2149 -0.8903 -0.5219 0.1228zm-4.4208 8.4118l0.2149 0.4605 -0.8289 0.1997c0,0 -0.2763,0.138 -0.307,-0.1383 -0.0307,-0.2763 -0.1345,-0.871 -0.3075,-1.5505 -0.198,-0.7779 -1.5232,-1.7216 -2.3936,-0.9519 -0.2704,0.2392 -0.2154,0.6911 -0.2768,0.8753 -0.0614,0.1842 -0.2391,0.5013 -0.4599,0.2613 -1.0528,-1.1444 0.6895,-2.9151 2.0098,-2.0422 0.9178,0.6068 1.0596,0.8292 1.4587,1.4739 0.3991,0.6447 0.8903,1.4122 0.8903,1.4122zm1.1777 1.2738l-1.2072 3.702c0,0 0.1743,0.6232 -0.2489,0.5609 -0.4232,-0.0623 -1.3069,-0.3241 -1.4313,-0.3864 -0.1244,-0.0623 0.0747,-0.349 -0.5849,-0.0997 -0.6596,0.2493 -1.257,0.3864 -1.5308,0.4113 -0.2738,0.0249 -0.697,0.1744 -0.697,-0.0499 0,-0.2243 0.0995,-0.3864 0.0995,-0.3864l1.3318 -0.6979c0.4894,-0.2564 0.2574,0.414 0.672,0.162 0.2563,-0.1557 0.5975,-0.2292 0.8504,-0.3915 0.2231,-0.1431 0.3584,-0.375 0.5809,-0.5184 0,0 -0.1867,-0.2119 -0.112,-0.4238 0.0747,-0.2119 0.3111,-0.673 0.3111,-0.673 0,0 0.1245,0.0871 0.4979,0.0747 0.3734,-0.0124 0.5601,-0.1246 0.6098,-0.4238 0.0497,-0.2992 0.3733,-0.8974 0.3733,-0.8974l0.4854 0.0373zm6.6307 -15.68c0,0 0.4467,0.1367 1.4889,0.236 1.0422,0.0993 2.2457,0.0994 2.2457,0.0994l1.0547 1.5906c0,0 0.397,0.2734 0.397,0.0994 0,-0.174 -0.5707,-1.3172 -0.5707,-1.3172 0,0 -0.0497,-0.1987 0.2233,-0.0745 0.273,0.1242 1.0424,0.9196 1.216,1.3172 0.08,0.1831 0.4442,0.8767 0.6737,1.6681 0.2684,0.9259 0.403,1.9679 0.443,2.2089 0.0743,0.4472 0.0496,0.5468 0.0248,0.8947 -0.0248,0.3479 0.2854,1.3173 1.4765,1.7397 0.8953,0.3176 1.3893,-0.0295 2.1713,0.3976 0.5458,0.2981 1.34,0.497 1.8611,1.2426 0.5211,0.7456 1.1166,1.8142 1.3152,2.1622 0.1986,0.348 0.4964,0.9196 -0.0744,1.1184 -0.5708,0.1988 -1.5881,0.1988 -2.01,-0.0994 -0.4219,-0.2982 -4.6157,-3.4794 -4.6157,-3.4794l-0.5955 -0.0746 -0.2109 -0.5218 0.6328 -0.0125c0,0 0.0992,-0.1368 -0.0993,-0.4101 -0.1985,-0.2733 -0.2482,-0.7952 -0.2978,-1.2674 -0.0496,-0.4722 -0.0496,-1.7894 -0.2233,-2.2616 -0.1737,-0.4722 -0.9182,-2.6965 -0.9182,-2.6965 0,0 -0.1489,-0.261 -0.2978,-0.1119 -0.1489,0.1491 -0.3227,0.2859 -0.1241,0.5468 0.1986,0.2609 0.6703,1.0935 0.8314,1.9758 0.1611,0.8823 -0.211,0.9319 -0.1862,1.2053 0.0248,0.2734 0.2357,0.5468 0.335,0.671 0.0993,0.1242 -0.2356,0.4723 -0.3101,0.6214 -0.0745,0.1491 -0.4342,0.6833 -1.0546,0.5839 -0.6204,-0.0994 -3.2385,-3.1935 -3.2385,-3.1935 0,0 -0.5831,-0.8575 -0.8188,-1.3048 -0.2357,-0.4473 -1.1168,-1.3792 -1.4393,-1.926 -0.3225,-0.5468 -0.6452,-0.8699 -0.546,-1.2178 0.0992,-0.3479 0.459,-0.4847 0.459,-0.4847l0.7818 0.0747zm10.2474 9.3198l1.3028 1.2924 0.1241 0.174 0.335 0.1118 0.4591 0.5343 0.3226 0.1243 -0.0745 0.4474 -0.3722 -0.0249 -0.1241 -0.2609 -0.2854 -0.0249c0,0 -0.0123,0.2982 -0.124,0.2858 -0.1117,-0.0124 -2.0721,-1.7646 -2.0721,-1.7646l-0.4591 -0.0994 -0.0496 -0.3106c0,0 -0.5708,-0.0621 -0.3847,-0.2858 0.1861,-0.2237 0.5584,-0.2112 0.5956,-0.087 0.0372,0.1242 0.4343,0.2361 0.4343,0.2361l0.0124 -0.3604 0.3598 0.0124zm0.1334 4.7676c0,0 -0.9456,0.5397 -1.0741,1.2349 -0.1285,0.6952 -0.0572,0.9796 0.3799,1.134 0.4371,0.1544 0.8999,0.0514 0.8999,0.0514 0,0 0.257,0 -0.0258,-0.2832 -0.2828,-0.2832 -0.5399,-0.5922 -0.2828,-0.9527 0.2571,-0.3605 0.8484,-0.7209 1.3112,-0.8239 0.4628,-0.103 0.7455,-0.2318 1.3369,0.0257 0.5914,0.2575 1.1185,0.6052 1.4141,0.721 0.2956,0.1158 0.5142,0.1288 0.4885,-0.103 -0.0257,-0.2318 -0.2057,-0.2575 -0.2057,-0.2575l-0.1543 -0.3605c0,0 -0.1543,0.1802 -0.2828,0.1545 -0.1285,-0.0257 -0.257,-0.2832 -0.1285,-0.4377 0.1285,-0.1545 0.437,-0.5665 0.1799,-0.4635 -0.2571,0.103 -0.4938,0.4843 -1.2597,0.2833 -1.5369,-0.4033 -1.2134,-0.6984 -2.5967,0.0772zm5.2448 1.1587c0,0 -0.7457,0.1545 -0.6171,0.412 0.1286,0.2575 0.0257,0.3991 0.4885,0.5021 0.4628,0.103 0.7969,0.2189 0.6427,0.3218 -0.1542,0.1029 -0.8227,-0.0001 -0.6684,0.2317 0.1543,0.2318 0.3344,0.4764 0.4885,0.6438 0.5359,0.5817 -0.3599,0.2827 -0.3599,0.8497 0,0.5407 0.0772,0.6695 0,0.8497 -0.0772,0.1802 -0.18,0.4892 -0.18,0.4892 0,0 0.2056,0.1545 0.3599,-0.0515 0.1543,-0.206 0.3599,-0.5666 0.4885,-0.9785 0.1286,-0.4119 0.2057,-0.5665 0.4885,-0.7209 0.2828,-0.1544 0.797,-0.3605 0.7713,-0.6437 -0.0257,-0.2832 -0.0516,-0.3605 -0.36,-0.6952 -0.3084,-0.3347 -0.707,-0.8498 -0.9769,-1.339 -0.2699,-0.4892 -0.5142,0.0773 -0.5656,0.1288z"/>
 </g>
</svg>
