<?xml version="1.0" encoding="UTF-8"?>
<!DOCTYPE svg PUBLIC "-//W3C//DTD SVG 1.1//EN" "http://www.w3.org/Graphics/SVG/1.1/DTD/svg11.dtd">
<!-- Creator: CorelDRAW -->
<svg xmlns="http://www.w3.org/2000/svg" xml:space="preserve" width="248mm" height="27mm" style="shape-rendering:geometricPrecision; text-rendering:geometricPrecision; image-rendering:optimizeQuality; fill-rule:evenodd; clip-rule:evenodd"
viewBox="0 0 248 27"
 xmlns:xlink="http://www.w3.org/1999/xlink">
 <defs>
  <style type="text/css">
   <![CDATA[
    .fil0 {fill:#0093DD;fill-rule:nonzero}
   ]]>
  </style>
 </defs>
 <g id="Layer_x0020_1">
  <metadata id="CorelCorpID_0Corel-Layer"/>
  <path class="fil0" d="M11.7917 25.4019l-11.0142 0 0 -0.5349c0.3582,-0.0446 0.8283,-0.1505 1.4103,-0.3176 0.5821,-0.1672 1.069,-0.5907 1.4608,-1.2705 0.3918,-0.6797 0.5877,-1.7663 0.5877,-3.2596l0 -13.3061c0,-1.5156 -0.1904,-2.6077 -0.571,-3.2763 -0.3805,-0.6687 -0.8674,-1.0866 -1.4607,-1.2537 -0.5932,-0.1672 -1.0689,-0.2731 -1.4271,-0.3176l0 -0.535 11.0142 0 0 0.535 -0.8058 0.1337c-0.9851,0.2897 -1.6735,0.7745 -2.0652,1.4543 -0.3918,0.6798 -0.5877,1.7663 -0.5877,3.2596l0 5.8841 12.4583 0 0 -5.8841c0,-1.5156 -0.1903,-2.6077 -0.5708,-3.2763 -0.3806,-0.6687 -1.0634,-1.1367 -2.0485,-1.4042 -0.1567,-0.0668 -0.4365,-0.1226 -0.8395,-0.1671l0 -0.535 11.0479 0 0 0.535 -0.8395 0.1337c-0.9626,0.2897 -1.6398,0.7801 -2.0317,1.471 -0.3917,0.6909 -0.5875,1.7719 -0.5875,3.2429l0 13.3061c0,1.5156 0.1902,2.6077 0.5708,3.2764 0.3806,0.6686 1.0634,1.1478 2.0484,1.4376l0.8395 0.1337 0 0.5349 -11.0479 0 0 -0.5349c0.3806,-0.0446 0.8563,-0.1505 1.4272,-0.3176 0.5708,-0.1672 1.0522,-0.5962 1.4439,-1.2872 0.3918,-0.6909 0.5877,-1.7719 0.5877,-3.2429l0 -6.6196 -12.4583 0 0 6.6196c0,1.4933 0.1959,2.5799 0.5877,3.2596 0.3917,0.6798 1.0801,1.1646 2.0652,1.4544l0.8058 0.1337 0 0.5349zm-8.8651 -23.4026l1.0074 0.7355c0.4254,0.312 0.694,0.5516 0.806,0.7188 0.1119,0.1672 0.1678,0.429 0.1678,0.7857l0 0.8023 0 16.549 0 0.9027c0,0.3566 -0.0503,0.6185 -0.151,0.7856 -0.1008,0.1672 -0.375,0.4068 -0.8228,0.7188l-0.6716 0.5015 5.1713 0 -0.7052 -0.5015c-0.4028,-0.312 -0.6604,-0.5516 -0.7723,-0.7188 -0.1119,-0.1671 -0.1679,-0.429 -0.1679,-0.7856l0 -0.9027 0 -16.4487 0 -0.9026c0,-0.3567 0.056,-0.6185 0.1679,-0.7857 0.1119,-0.1672 0.3695,-0.4068 0.7723,-0.7188l1.041 -0.7355 -5.8429 0zm16.5887 0l1.0073 0.7355c0.4254,0.312 0.6884,0.5516 0.7892,0.7188 0.1007,0.1672 0.1511,0.429 0.1511,0.7857l0 0.8023 0 16.549c0,0.8693 -0.0336,1.3986 -0.1007,1.5881 -0.0672,0.1894 -0.347,0.4624 -0.8396,0.819l-0.7051 0.5015 5.1713 0 -0.6716 -0.5015c-0.4702,-0.3566 -0.75,-0.6407 -0.8395,-0.8525 -0.0896,-0.2117 -0.1343,-0.7299 -0.1343,-1.5546l0 -16.4487 0 -0.9026c0,-0.3567 0.0503,-0.613 0.1511,-0.769 0.1007,-0.156 0.3749,-0.4012 0.8227,-0.7355l1.0074 -0.7355 -5.8093 0zm30.5244 23.4026l-20.9205 0 0 -0.5349 0.8059 -0.1337c0.985,-0.2898 1.6735,-0.7746 2.0652,-1.4599 0.3918,-0.6798 0.5877,-1.7664 0.5877,-3.2597l0 -13.3283c0,-1.5156 -0.1904,-2.6077 -0.5709,-3.282 -0.3806,-0.6686 -1.0746,-1.1478 -2.082,-1.4375l-0.8059 -0.1282 0 -0.5071 20.1481 0 0.6716 6.5528 -0.5372 0 -0.3695 -1.0699c-1.3208,-3.2317 -3.6937,-4.8476 -7.1189,-4.8476l-0.9739 0c-1.567,0 -2.664,0.2897 -3.2908,0.8692 -0.6268,0.5795 -0.9402,1.5825 -0.9402,3.0089l0 5.9844 2.3505 0c1.6343,0 2.8431,-0.2229 3.6267,-0.6687 0.7835,-0.4457 1.2705,-0.9584 1.4607,-1.5378 0.1904,-0.5795 0.3134,-0.964 0.3695,-1.1535 0.0559,-0.1894 0.0951,-0.351 0.1175,-0.4847l0.5372 0 0 8.9264 -0.5372 0 -0.168 -0.8358c-0.3805,-1.3596 -0.9458,-2.2901 -1.6957,-2.7916 -0.75,-0.5015 -1.9756,-0.7522 -3.6771,-0.7522l-2.3841 0 0 7.6225c0,1.7385 0.2574,2.8975 0.7723,3.477 0.5148,0.5795 1.5111,0.8692 2.9886,0.8692l1.6455 0c1.4551,0 2.9214,-0.468 4.399,-1.4041 1.4775,-0.9361 3.0894,-2.4963 4.8355,-4.6806l0.1679 -0.2005 0.6045 0 -2.082 7.1879zm-4.6341 -23.436c0.9402,0.3566 1.7797,0.9584 2.5185,1.8053l0.4029 0.5684 -0.3693 -2.3737 -2.5521 0zm-3.4588 10.2637c0.3358,0.1337 0.6772,0.2897 1.0243,0.468 0.3469,0.1783 0.6436,0.4012 0.8898,0.6687l0 -2.2734c-0.291,0.2006 -0.6156,0.4235 -0.9738,0.6686 -0.3582,0.2452 -0.6716,0.4012 -0.9403,0.4681zm3.526 12.2696l3.3132 0 0.985 -3.2763 -0.4701 0.5349c-1.0298,1.0252 -2.0932,1.8388 -3.1901,2.4405l-0.638 0.3009zm-14.1708 -22.5333l0.1343 0.1003 0.8394 0.6463c0.4254,0.3176 0.694,0.5628 0.806,0.7467 0.1119,0.1783 0.1678,0.4402 0.1678,0.7745l0 0.273 0 0.3343 0 0.3009 0 16.4487 0 0.3009 0 0.6018c0,0.3789 -0.0503,0.6408 -0.151,0.7856 -0.1008,0.1449 -0.375,0.3845 -0.8228,0.7188l-0.6716 0.5015 5.1714 0 -0.7052 -0.5015c-0.4029,-0.312 -0.6604,-0.5516 -0.7723,-0.7188 -0.1119,-0.1671 -0.168,-0.429 -0.168,-0.7856l0 -0.9027 0 -16.4487 0 -0.9138c0,-0.3343 0.0561,-0.5962 0.168,-0.7745 0.1119,-0.1839 0.3694,-0.4291 0.7723,-0.7467l0.8059 -0.6073 0.235 -0.1337 -5.8092 0zm31.834 23.436l-11.2829 0 0 -0.5349c0.3581,-0.0446 0.8282,-0.1505 1.4103,-0.3176 0.582,-0.1672 1.069,-0.5907 1.4607,-1.2705 0.3918,-0.6797 0.5877,-1.7663 0.5877,-3.2596l0 -13.3061c0,-1.4933 -0.1903,-2.5742 -0.5709,-3.2429 -0.3806,-0.6686 -0.8563,-1.0921 -1.4271,-1.2704 -0.5709,-0.1783 -1.0579,-0.2898 -1.4607,-0.3343l0 -0.535 0.4476 0.0446 1.5895 0.0892 0.4477 0 0.6045 0 2.373 0 0.6045 0 0.5988 0 0.5708 -0.0836 0.5373 -0.0446 2.5073 -0.2563 0.571 -0.0836 0.5652 0 0.5373 0 0.6044 0c2.5633,0 4.5893,0.4625 6.0724,1.3875 1.4832,0.9249 2.3059,1.8109 2.4738,2.6578 0.1679,0.847 0.263,1.3875 0.2854,1.6215 0.0224,0.234 0.0336,0.4513 0.0336,0.6519 0,1.3373 -0.4534,2.4406 -1.36,3.3098 -0.9067,0.8693 -2.2555,1.4488 -4.0464,1.7385l-1.0746 0.1003 0.7387 0.3009c1.0747,0.5126 2.0204,1.1924 2.8376,2.0394 0.8171,0.8469 1.8301,2.2399 3.039,4.179l2.082 3.1761c0.7387,1.0029 1.4215,1.7719 2.0484,2.3068 0.6268,0.5349 1.2872,0.9361 1.9812,1.2036l0 0.468 -0.5372 0c-0.1568,0 -0.3303,-0.0111 -0.5205,-0.0334 -0.1904,-0.0223 -0.8619,-0.0947 -2.0149,-0.2173 -1.1529,-0.1226 -2.5689,-0.8414 -4.2479,-2.1564 -1.679,-1.315 -3.1565,-3.2875 -4.4325,-5.9175l-0.9403 -1.9391c-0.6268,-1.2927 -1.2089,-2.1285 -1.7462,-2.5074 -0.5372,-0.3789 -1.3991,-0.5684 -2.5856,-0.5684l-3.0895 0 0 7.2214c0,1.4933 0.2128,2.5799 0.6381,3.2596 0.4253,0.6798 1.1641,1.1646 2.2163,1.4544l0.8731 0.1337 0 0.5349zm-3.7275 -13.3395l3.1566 0c4.2087,0 6.3131,-1.5602 6.3131,-4.6749 0,-0.4068 -0.0504,-0.9306 -0.1511,-1.5825 -0.1008,-0.6519 -0.4926,-1.4432 -1.1753,-2.3737 -0.6828,-0.9305 -1.5223,-1.4654 -2.5186,-1.5992 -0.9962,-0.1337 -1.6734,-0.2006 -2.0315,-0.2006 -1.2538,0 -2.166,0.3399 -2.7369,1.0253 -0.5708,0.6854 -0.8563,1.7663 -0.8563,3.2485l0 6.1571zm6.9176 0.0669l0.8731 -0.2006c1.388,-0.4514 2.4457,-1.1033 3.1733,-1.9558 0.7275,-0.8525 1.0913,-1.8276 1.0913,-2.9253 0,-0.156 -0.0559,-0.5628 -0.1678,-1.2147 -0.112,-0.6464 -0.5261,-1.354 -1.2425,-2.1174 -0.7164,-0.7634 -1.6567,-1.315 -2.8208,-1.6493l-0.8395 -0.2006 0.7052 0.4011c1.3656,0.964 2.1492,2.2567 2.3507,3.8726 0,0.1783 0.0111,0.3678 0.0335,0.5739 0.0224,0.2006 0.0336,0.3567 0.0336,0.4681 0,1.0531 -0.2071,1.9558 -0.6213,2.708 -0.4141,0.7522 -1.0353,1.3763 -1.8636,1.8722l-0.7052 0.3678zm-0.8059 0.6686c0.5372,0.5572 0.985,1.1256 1.3432,1.7051l0.235 0.4012 0.1343 0.3008 0.2687 0.5015 0.3022 0.5684 0.5373 1.0698c1.0522,2.0505 2.1268,3.6553 3.2237,4.8143 1.0969,1.159 2.1603,1.9558 3.1901,2.3904 1.0298,0.4346 1.9477,0.7188 2.7536,0.8525l-0.7051 -0.3678c-0.7389,-0.4457 -1.3601,-0.9026 -1.8638,-1.3707 -0.5037,-0.468 -1.0578,-1.1144 -1.6622,-1.9391l-0.5037 -0.7355 -0.5709 -0.9026 -0.7388 -1.1702c-0.9626,-1.5601 -1.8077,-2.7581 -2.5352,-3.5939 -0.7276,-0.8358 -1.3208,-1.3875 -1.7798,-1.6549 -0.4589,-0.2675 -0.7891,-0.4569 -0.9906,-0.5684 -0.2015,-0.1114 -0.4142,-0.2117 -0.638,-0.3009zm-11.4509 -10.7317l0.9403 0.6686c0.6491,0.4458 0.9738,0.9472 0.9738,1.5045l0 0.6017 0 0.3009 0 16.4487 0 0.9027c0,0.3566 -0.0504,0.6185 -0.1511,0.7856 -0.1007,0.1672 -0.375,0.4068 -0.8227,0.7188l-0.6717 0.5015 5.1714 0 -0.7052 -0.5015c-0.4029,-0.312 -0.6604,-0.5516 -0.7723,-0.7188 -0.1119,-0.1671 -0.168,-0.429 -0.168,-0.7856l0 -0.9027 0 -16.4487 0 -0.8358c0.0448,-0.3343 0.1848,-0.6686 0.4198,-1.003 0.2351,-0.3343 0.515,-0.624 0.8395,-0.8692 0.3246,-0.2452 0.5541,-0.39 0.6884,-0.4346l-2.1155 0.0669 -0.7276 0 -0.666 0 -0.4925 0 -0.4981 0 -0.6045 0 -0.638 0zm34.4868 23.3357l-9.6711 0 0 -0.5572 0.806 -0.3455c1.1641,-0.5795 2.0428,-1.432 2.636,-2.552 0.5933,-1.1255 0.9906,-2.786 1.1921,-4.9925l1.1418 -12.682 -0.3023 -0.5405c-0.6939,-1.042 -1.6454,-1.6605 -2.8543,-1.8666l-0.6044 0 0 -0.535 8.5965 0 -0.1008 0.2341c-0.2238,0.6018 -0.3358,1.0475 -0.3358,1.3373 0,0.5349 0.3023,1.393 0.9067,2.5742l6.8504 13.49 5.6695 -13.1222c0.4533,-1.0253 0.6771,-1.8611 0.6771,-2.5074 0,-0.4458 -0.1231,-0.9361 -0.3694,-1.471l-0.3358 -0.535 8.4959 0 0 0.535 -0.7052 0.1337c-0.9627,0.2229 -1.6399,0.6185 -2.0317,1.1868 -0.3917,0.5684 -0.5876,1.393 -0.5876,2.4852l0.084 0.4346 1.511 13.5122c0.1791,1.7385 0.4702,2.9588 0.8843,3.6608 0.4142,0.7021 1.0746,1.1869 1.9924,1.4544l0.834 0.1337 0 0.5349 -11.283 0 0 -0.5349 0.7444 -0.2006c1.1025,-0.3566 1.8525,-0.7522 2.2443,-1.1869 0.3917,-0.4346 0.5932,-1.0977 0.5932,-1.9892l-0.0671 -1.1645 -1.7238 -15.195 -8.1377 19.2013 -0.4029 0 -9.6711 -19.1902c-0.1119,1.1813 -0.2518,2.7805 -0.4198,4.7976 -0.1678,2.017 -0.3358,4.0174 -0.5037,6.0011 -0.1678,1.9836 -0.2407,2.9866 -0.2183,3.0089 0,1.6047 0.2911,2.8529 0.8732,3.7444 0.5821,0.8915 1.511,1.549 2.7872,1.9725l0.8058 0.2006 0 0.5349zm15.2119 -23.4026l2.1491 19.6582c0,0.2006 -0.0055,0.3845 -0.0168,0.5516 -0.0111,0.1672 -0.0503,0.3622 -0.1175,0.5851 -0.0672,0.2229 -0.1399,0.39 -0.2183,0.5015 -0.0783,0.1114 -0.2071,0.2674 -0.3862,0.468 -0.1791,0.2006 -0.3638,0.3566 -0.554,0.4681 -0.1904,0.1114 -0.3527,0.2006 -0.487,0.2674l5.4401 0c-0.1792,-0.1114 -0.3359,-0.2229 -0.4813,-0.3343 -0.1456,-0.1114 -0.3303,-0.3065 -0.5653,-0.5851 -0.2295,-0.2786 -0.3974,-0.5237 -0.4981,-0.7355 -0.0952,-0.2117 -0.1455,-0.5962 -0.1455,-1.1534l-1.9141 -16.8554c-0.0615,-0.1783 -0.0896,-0.4012 -0.0896,-0.6687 0,-0.2229 0.0224,-0.4012 0.0672,-0.5349 0.0503,-0.1337 0.1567,-0.3288 0.3302,-0.5795 0.1734,-0.2563 0.4141,-0.4625 0.7163,-0.6185 0.3023,-0.156 0.5877,-0.3009 0.8676,-0.4346l-4.0968 0zm-20.2824 0c0.5373,0.3566 0.9905,0.7856 1.36,1.2871 0.3693,0.5015 0.8003,1.2315 1.2928,2.1898l8.9379 17.8083 0.9122 -2.2845 -8.1039 -16.159c-0.403,-0.8469 -0.6045,-1.471 -0.6045,-1.8722 0,-0.3343 0.1007,-0.6575 0.3022,-0.9695l-4.0967 0zm-2.5522 22.4999l4.0297 0 -0.4365 -0.468c-0.6717,-0.8024 -1.0747,-1.6494 -1.209,-2.5409 -0.3805,1.0253 -0.9961,1.8945 -1.8469,2.6077l-0.5373 0.4012zm53.4261 0.9027l-20.9204 0 0 -0.5349 0.8059 -0.1337c0.985,-0.2898 1.6734,-0.7746 2.0651,-1.4599 0.3919,-0.6798 0.5877,-1.7664 0.5877,-3.2597l0 -13.3283c0,-1.5156 -0.1903,-2.6077 -0.5709,-3.282 -0.3806,-0.6686 -1.0745,-1.1478 -2.0819,-1.4375l-0.8059 -0.1282 0 -0.5071 20.148 0 0.6717 6.5528 -0.5373 0 -0.3694 -1.0699c-1.3208,-3.2317 -3.6938,-4.8476 -7.1189,-4.8476l-0.9739 0c-1.567,0 -2.6641,0.2897 -3.2908,0.8692 -0.6269,0.5795 -0.9403,1.5825 -0.9403,3.0089l0 5.9844 2.3506 0c1.6343,0 2.8431,-0.2229 3.6267,-0.6687 0.7835,-0.4457 1.2704,-0.9584 1.4607,-1.5378 0.1903,-0.5795 0.3134,-0.964 0.3694,-1.1535 0.056,-0.1894 0.0951,-0.351 0.1175,-0.4847l0.5373 0 0 8.9264 -0.5373 0 -0.1679 -0.8358c-0.3806,-1.3596 -0.9459,-2.2901 -1.6958,-2.7916 -0.75,-0.5015 -1.9756,-0.7522 -3.6771,-0.7522l-2.3841 0 0 7.6225c0,1.7385 0.2575,2.8975 0.7723,3.477 0.5149,0.5795 1.5112,0.8692 2.9887,0.8692l1.6454 0c1.4551,0 2.9215,-0.468 4.399,-1.4041 1.4775,-0.9361 3.0894,-2.4963 4.8355,-4.6806l0.1679 -0.2005 0.6045 0 -2.082 7.1879zm-4.6341 -23.436c0.9403,0.3566 1.7798,0.9584 2.5185,1.8053l0.403 0.5684 -0.3693 -2.3737 -2.5522 0zm-3.4587 10.2637c0.3358,0.1337 0.6772,0.2897 1.0242,0.468 0.3469,0.1783 0.6436,0.4012 0.8898,0.6687l0 -2.2734c-0.291,0.2006 -0.6156,0.4235 -0.9738,0.6686 -0.3581,0.2452 -0.6715,0.4012 -0.9402,0.4681zm3.5259 12.2696l3.3132 0 0.9851 -3.2763 -0.4701 0.5349c-1.0298,1.0252 -2.0932,1.8388 -3.1902,2.4405l-0.638 0.3009zm-14.1708 -22.5333l0.1343 0.1003 0.8395 0.6463c0.4254,0.3176 0.694,0.5628 0.806,0.7467 0.1118,0.1783 0.1678,0.4402 0.1678,0.7745l0 0.273 0 0.3343 0 0.3009 0 16.4487 0 0.3009 0 0.6018c0,0.3789 -0.0503,0.6408 -0.1511,0.7856 -0.1007,0.1449 -0.3749,0.3845 -0.8227,0.7188l-0.6717 0.5015 5.1714 0 -0.7052 -0.5015c-0.4029,-0.312 -0.6604,-0.5516 -0.7723,-0.7188 -0.1119,-0.1671 -0.1679,-0.429 -0.1679,-0.7856l0 -0.9027 0 -16.4487 0 -0.9138c0,-0.3343 0.056,-0.5962 0.1679,-0.7745 0.1119,-0.1839 0.3694,-0.4291 0.7723,-0.7467l0.806 -0.6073 0.235 -0.1337 -5.8093 0zm21.0547 22.0987l-0.5372 -6.6865 0.5372 0c0.0224,0.0892 0.0616,0.2341 0.1177,0.4347 0.0559,0.2006 0.3245,0.9138 0.8058,2.1396 0.4813,1.2259 1.3824,2.3737 2.7032,3.4436 1.3208,1.0698 2.776,1.6047 4.3654,1.6047 0.1344,0 0.2911,-0.0111 0.4702,-0.0334 0.1791,-0.0223 0.6045,-0.0725 1.276,-0.1505 0.6717,-0.078 1.4048,-0.468 2.1995,-1.1701 0.7948,-0.7021 1.2537,-1.393 1.3768,-2.0728 0.1231,-0.6798 0.1847,-1.1868 0.1847,-1.5212 0,-1.1367 -0.5092,-2.1619 -1.5278,-3.0757 -1.0187,-0.9139 -2.8152,-1.9391 -5.3897,-3.0758l-0.9402 -0.4012 -0.4366 -0.1672 -0.2351 -0.1337 -0.6715 -0.3009c-0.9403,-0.4903 -1.6959,-0.9974 -2.2667,-1.5211 -0.5709,-0.5238 -1.0298,-1.12 -1.3768,-1.7887 -0.347,-0.6686 -0.5205,-1.4933 -0.5205,-2.474 0,-0.4457 0.0728,-1.1032 0.2183,-1.9725 0.1455,-0.8692 0.8619,-1.7886 2.1491,-2.7581 1.2872,-0.9696 2.86,-1.4543 4.718,-1.4543 0.9403,0 1.847,0.1225 2.72,0.3677l1.0746 0.2675c0.5596,0.1337 1.1865,0.234 1.8804,0.3009l0.6381 0 0.1679 0 1.041 5.884 -0.6045 0 -0.3693 -1.1032c-0.6269,-1.6271 -1.3713,-2.8306 -2.2332,-3.6107 -0.8619,-0.7801 -1.6677,-1.2147 -2.4177,-1.3039 -0.7499,-0.0891 -1.2089,-0.1393 -1.3768,-0.1504 -0.1679,-0.0112 -0.2966,-0.0167 -0.3862,-0.0167 -1.1641,0 -2.1267,0.273 -2.8879,0.8191 -0.7611,0.546 -1.2144,1.1589 -1.36,1.8387 -0.1454,0.6798 -0.2182,1.1089 -0.2182,1.2872 0,0.9361 0.4645,1.783 1.3936,2.5408 0.929,0.7578 2.692,1.6828 5.2888,2.7749 2.5969,1.0921 4.455,2.1843 5.5743,3.2764 1.1194,1.0921 1.679,2.396 1.679,3.9116 0,0.468 -0.1062,1.3261 -0.319,2.5742 -0.2126,1.2482 -1.0857,2.4295 -2.6192,3.5439 -1.5335,1.1144 -3.5203,1.6716 -5.9605,1.6716 -1.097,0 -2.2723,-0.1282 -3.5259,-0.3845 -1.2537,-0.2563 -2.5633,-0.6408 -3.9289,-1.1534l-0.4702 -0.2006zm3.2909 -21.5638l-0.5708 0.4346c-1.3208,1.159 -1.9812,2.5186 -1.9812,4.0787 0,1.7831 0.4981,3.0312 1.4943,3.7445 0.9962,0.7132 1.6846,1.1701 2.0652,1.3707 0.3806,0.2006 0.873,0.4346 1.4775,0.7021l1.7125 0.7355 0.5374 0.234c1.97,0.8692 3.3691,1.6605 4.1975,2.3737 0.8283,0.7132 1.3543,1.432 1.5782,2.1564 0.2239,0.7243 0.3358,1.3651 0.3358,1.9223 0,0.9361 -0.1959,1.6995 -0.5876,2.2901 -0.3918,0.5907 -0.7892,1.0532 -1.1921,1.3875l0.6884 -0.5015c0.5708,-0.4903 1.0297,-0.9863 1.3711,-1.4877 0.3471,-0.5015 0.5989,-1.042 0.7557,-1.6215l0.1399 -0.6687c0,-0.156 0,-0.3287 0,-0.5182 0,-0.1894 0,-0.3287 0,-0.4179 0,-1.3818 -0.4813,-2.5687 -1.444,-3.5605 -0.9626,-0.9918 -2.6529,-1.9892 -5.0706,-2.9922l-1.8133 -0.7355 -0.3359 -0.1672 -1.7125 -0.8023c-0.8284,-0.4904 -1.4775,-0.9807 -1.9477,-1.4711 -0.4701,-0.4903 -0.7947,-1.0029 -0.9738,-1.5378 -0.1791,-0.535 -0.2687,-1.0476 -0.2687,-1.5379 0,-0.8693 0.3582,-1.8165 1.0747,-2.8418l0.47 -0.5683zm-2.955 18.3543l0.2351 2.3737 0.4029 0.234 0.403 0.2006 0.4365 0.2006 0.5373 0.234 0.638 0.2341 0.5373 0.2006 -0.5037 -0.4347c-0.5597,-0.5126 -1.0074,-0.9695 -1.3432,-1.3707 -0.3358,-0.4012 -0.6828,-0.8581 -1.0409,-1.3707l-0.3023 -0.5015zm43.2177 -19.8198l0.6381 0.1059 2.4177 0.4179c0.1567,0.0501 0.4141,0.078 0.7723,0.0892 0.3582,0.0111 0.6604,0.0167 0.9067,0.0167l0.168 -0.0335 2.0819 6.3522 -0.5373 0 -0.6381 -1.1757c-2.2162,-3.5383 -4.8802,-5.3102 -7.9921,-5.3102 -0.47,0 -1.4775,0.1282 -3.0222,0.3845 -1.5446,0.2563 -3.0837,1.3651 -4.6172,3.3321 -1.5335,1.9613 -2.3002,4.3852 -2.3002,7.2659 0,3.2374 0.8114,5.9621 2.4345,8.1854 1.623,2.2176 3.2629,3.4769 4.9196,3.7667 1.6566,0.2897 2.8094,0.4346 3.4587,0.4346 1.7686,0 3.0838,-0.4458 3.9457,-1.3317 0.8619,-0.8916 1.2928,-2.201 1.2928,-3.9339l0 -0.5684c0,-1.5323 -0.2462,-2.6467 -0.7388,-3.3488 -0.4925,-0.6965 -1.332,-1.1701 -2.5185,-1.4153l-0.9402 -0.0724 0 -0.5628 10.9135 0 0 0.5349c-0.291,0.0446 -0.6492,0.1561 -1.0745,0.3344 -0.4254,0.1783 -0.7892,0.5962 -1.0914,1.2537 -0.3022,0.6575 -0.4533,1.744 -0.4533,3.2596l0 3.2095 1.0745 1.6048 -0.235 0 -0.2687 -0.0335c-1.0521,0 -2.2051,0.1338 -3.4587,0.4012l-0.7052 0.2006 -0.806 0.2006 -0.9738 0.3009 -0.9737 0.3009 -0.7724 0.2006 -0.7053 0.2006c-0.3133,0.0669 -0.7331,0.1449 -1.2592,0.234 -0.526,0.0892 -1.0802,0.1337 -1.6622,0.1337 -4.0296,0 -7.3093,-1.1255 -9.839,-3.3766 -2.5297,-2.2511 -3.7946,-5.1597 -3.7946,-8.7258 0,-0.7801 0.168,-2.162 0.5038,-4.1456 0.3357,-1.9837 1.8469,-3.9562 4.5333,-5.9176 2.6864,-1.9613 5.8654,-2.942 9.5367,-2.942l0.6045 0 0.5709 0.0724 0.6044 0.1003zm2.5856 13.2336l1.0579 0.769c0.4309,0.2897 0.6996,0.5182 0.8059,0.6853 0.1007,0.1672 0.1511,0.4402 0.1511,0.8191l0 0.769 0 2.7749c0,0.8469 -0.0783,1.5156 -0.2351,2.0059 -0.1567,0.4903 -0.4589,0.9807 -0.9066,1.471l-0.3694 0.4012 0.5709 -0.234c0.9626,-0.312 1.9029,-0.5349 2.8207,-0.6687l0 -5.65 0 -0.3009 0 -0.5349c0,-0.4012 0.0503,-0.6854 0.1511,-0.8526 0.1007,-0.1671 0.3638,-0.3956 0.7891,-0.6853l1.041 -0.769 -5.8766 0zm-10.3762 -12.1359l-1.4104 0.769c-3.8281,2.2734 -5.8597,4.5189 -6.0948,6.7366 -0.235,2.2176 -0.3526,3.5828 -0.3526,4.0954 0,2.7861 0.7947,5.2043 2.3842,7.2548 1.5895,2.0506 3.7162,3.399 6.3802,4.0453l1.7798 0.3009 -1.5783 -0.6017c-2.4625,-1.1367 -4.259,-2.7749 -5.3896,-4.9146 -1.1305,-2.1397 -1.6958,-4.7808 -1.6958,-7.9234 0,-1.7608 0.3974,-3.3489 1.1922,-4.7642 0.7947,-1.4153 2.0091,-2.7915 3.6434,-4.1288l1.1417 -0.8693zm30.0207 23.2689l-11.0142 0 0 -0.5349c0.3581,-0.0446 0.8282,-0.1505 1.4103,-0.3176 0.582,-0.1672 1.069,-0.5907 1.4607,-1.2705 0.3918,-0.6797 0.5877,-1.7663 0.5877,-3.2596l0 -13.3061c0,-1.5156 -0.1903,-2.6077 -0.5709,-3.2763 -0.3806,-0.6687 -0.8674,-1.0866 -1.4608,-1.2537 -0.5932,-0.1672 -1.0689,-0.2731 -1.427,-0.3176l0 -0.535 11.0142 0 0 0.535c-0.3582,0.0445 -0.8283,0.1504 -1.4103,0.3176 -0.5821,0.1671 -1.0691,0.5906 -1.4608,1.2704 -0.3918,0.6798 -0.5877,1.7663 -0.5877,3.2596l0 13.3061c0,1.4933 0.1959,2.5799 0.5877,3.2596 0.3917,0.6798 0.8787,1.1033 1.4608,1.2705 0.582,0.1671 1.0521,0.273 1.4103,0.3176l0 0.5349zm-8.8652 -23.4026l1.0075 0.7355c0.4253,0.312 0.6939,0.5516 0.8059,0.7188 0.1119,0.1672 0.1678,0.429 0.1678,0.7857l0 0.9026 0 16.4487 0 0.9027c0,0.3566 -0.0503,0.6185 -0.151,0.7856 -0.1008,0.1672 -0.375,0.4068 -0.8227,0.7188l-0.6717 0.5015 5.1714 0 -0.7052 -0.5015c-0.4029,-0.312 -0.6604,-0.5516 -0.7723,-0.7188 -0.1119,-0.1671 -0.168,-0.429 -0.168,-0.7856l0 -0.9027 0 -16.4487 0 -0.2006 0 -0.702c0,-0.3567 0.0561,-0.6185 0.168,-0.7857 0.1119,-0.1672 0.3694,-0.4068 0.7723,-0.7188l1.0074 -0.7355 -5.8094 0zm21.3571 23.4026l-11.7531 0 0 -0.5349 0.8059 -0.1337c0.985,-0.2898 1.6734,-0.7746 2.0652,-1.4599 0.3918,-0.6798 0.5877,-1.7664 0.5877,-3.2597l0 -13.3283c0,-1.5156 -0.1904,-2.6077 -0.571,-3.282 -0.3805,-0.6686 -1.0745,-1.1478 -2.0819,-1.4375l-0.8059 -0.1282 0 -0.5071 19.6444 0 0.7051 6.5528 -0.5708 0 -0.3694 -1.0754c-1.2984,-3.2262 -3.6602,-4.8421 -7.0854,-4.8421l-0.5037 0c-1.567,0 -2.6641,0.2897 -3.2908,0.8748 -0.6269,0.5795 -0.9403,1.5713 -0.9403,2.981l0 6.0067 1.7461 0c1.6343,0 2.8432,-0.2229 3.6267,-0.6687 0.7836,-0.4457 1.2705,-0.9584 1.4607,-1.5378 0.1904,-0.5795 0.3135,-0.964 0.3695,-1.1535 0.0559,-0.1894 0.0951,-0.351 0.1175,-0.4847l0.5372 0 0 9.3944 -0.5372 0 -0.168 -0.9026c-0.3805,-1.5156 -0.9513,-2.552 -1.7125,-3.1092 -0.7612,-0.5572 -2.0036,-0.8358 -3.7274,-0.8358l-1.7126 0 0 7.4888c0,1.471 0.2351,2.5464 0.7051,3.2262 0.4702,0.6798 1.041,1.1089 1.7127,1.2872 0.6715,0.1783 1.0745,0.2786 1.2088,0.3009 0.1344,0.0222 0.3135,0.0334 0.5374,0.0334l0 0.5349zm4.0632 -23.436l0.5372 0.2674c0.6716,0.3343 1.1642,0.691 1.4775,1.0698l0.9067 1.003 -0.4029 -2.3402 -2.5185 0zm-3.6267 10.2637c0.3134,0.1337 0.6492,0.2953 1.0073,0.4847 0.3583,0.1895 0.6605,0.4068 0.9067,0.652l0 -2.2734c-0.1119,0.1114 -0.2126,0.2061 -0.3022,0.2842 -0.0895,0.078 -0.2239,0.1727 -0.403,0.2841 -0.1791,0.1115 -0.3637,0.2118 -0.554,0.3009 -0.1903,0.0892 -0.4085,0.1783 -0.6548,0.2675zm-10.0069 -10.2637l0.9738 0.7355c0.4254,0.312 0.694,0.5516 0.806,0.7188 0.1119,0.1671 0.1678,0.429 0.1678,0.7912l0 0.9027 0 16.4709c0,0.847 -0.0335,1.3708 -0.1007,1.5602 -0.0671,0.1895 -0.3582,0.4736 -0.8731,0.8525l-0.6716 0.5015 5.1713 0 -0.7052 -0.5015c-0.4028,-0.312 -0.6604,-0.5516 -0.7723,-0.7188 -0.1119,-0.1671 -0.1679,-0.429 -0.1679,-0.7912l0 -0.9027 0 -16.4709 0 -0.9027c0,-0.3622 0.056,-0.6241 0.1679,-0.7912 0.1119,-0.1672 0.3695,-0.4068 0.7723,-0.7188l1.041 -0.7355 -5.8093 0zm18.3348 5.9175l-0.5708 0 0.5372 -6.5528 23.0024 0 0.5373 6.5528 -0.5373 0 -0.3357 -1.0086c-0.5373,-1.3651 -1.2481,-2.474 -2.1324,-3.3098 -0.8842,-0.8413 -1.6342,-1.3205 -2.2498,-1.432 -0.6157,-0.1114 -1.1361,-0.1671 -1.5615,-0.1671 -2.1044,0 -3.1566,1.315 -3.1566,3.9505l0 14.0973c0,1.471 0.2351,2.5465 0.7052,3.2318 0.4702,0.6798 1.0746,1.1089 1.8134,1.2872 0.7387,0.1783 1.1752,0.2786 1.3095,0.3009 0.1344,0.0222 0.2575,0.0334 0.3695,0.0334l0 0.5349 -12.4918 0 0 -0.5349 0.9402 -0.1337c1.2088,-0.2898 2.0539,-0.7801 2.5353,-1.4766 0.4813,-0.691 0.7219,-1.772 0.7219,-3.243l0 -14.0973c0,-2.6355 -1.0745,-3.9505 -3.2237,-3.9505 -0.4029,0 -0.9122,0.0557 -1.5279,0.1671 -0.6156,0.1115 -1.3544,0.5795 -2.2162,1.3986 -0.8619,0.8135 -1.5727,1.9335 -2.1324,3.3432l-0.3358 1.0086zm19.0399 -5.9175c0.2911,0.1114 0.5597,0.2173 0.806,0.3176 0.2463,0.1003 0.5037,0.2841 0.7724,0.5516 0.2686,0.2675 0.5484,0.5628 0.8395,0.886 0.291,0.3231 0.4589,0.5182 0.5036,0.585l-0.3358 -2.3402 -2.5857 0zm-10.6113 22.5333l5.1714 0 -0.6828 -0.5015c-0.2742,-0.2451 -0.4925,-0.4847 -0.6548,-0.7188 -0.1567,-0.234 -0.2631,-0.4959 -0.3079,-0.7912l0 -0.7689 0 -16.6047c0,-0.5795 0.0281,-1.0364 0.084,-1.3763 0.0559,-0.3344 0.1903,-0.6241 0.403,-0.8693 0.2126,-0.2451 0.4533,-0.429 0.722,-0.5516 0.2685,-0.1226 0.5261,-0.2396 0.7723,-0.351l-5.44 0c0.1567,0.1114 0.3022,0.2173 0.4365,0.3176 0.1343,0.1003 0.2855,0.2563 0.4534,0.468 0.1679,0.2118 0.2854,0.3678 0.3526,0.4681 0.0672,0.1003 0.1343,0.2507 0.2015,0.4513 0.0671,0.2062 0.1118,0.4291 0.1342,0.6742 0.0224,0.2452 0.0336,0.5015 0.0336,0.769l0 16.4709 0 0.4681c0,0.3343 -0.0279,0.5962 -0.0839,0.7745 -0.056,0.1783 -0.1455,0.3566 -0.2687,0.5349 -0.1231,0.1783 -0.3301,0.3901 -0.6212,0.6352l-0.7052 0.5015zm-6.9847 -21.4969c0.0896,-0.1115 0.2631,-0.2564 0.5205,-0.4347 0.2575,-0.1783 0.5429,-0.3789 0.8563,-0.6017l-2.2498 0 -0.2687 2.6077c0.112,-0.1338 0.2855,-0.3734 0.5205,-0.7188 0.235,-0.3455 0.4422,-0.6297 0.6212,-0.8525z"/>
 </g>
</svg>
